<svg width="338" height="353" viewBox="0 0 338 353" fill="none" xmlns="http://www.w3.org/2000/svg">
<g filter="url(#filter0_d_129_2734)">
<path d="M275.686 110.011C258.521 73.964 198.686 74.011 198.686 74.011C198.686 74.011 218.186 44.011 257.186 51.0109C275.686 54.3315 294.686 64.511 312.186 87.511C319.795 97.5109 333.186 114.511 333.186 159.011C333.186 185.339 315.686 215.011 295.186 235.011C277.097 252.658 264.686 273.511 264.686 298.011C264.686 307.352 264.645 315.138 271.186 324.511C277.727 333.884 306.186 344.511 306.186 344.511C306.186 344.511 248.971 353.384 222.186 343.011C201.572 335.028 190.184 331.512 174.186 313.011C168.997 307.011 168.297 285.16 179.686 276.011C190.189 267.573 203.597 267.68 214.186 276.011C226.524 285.718 227.685 302.011 218.686 315.511C217.812 316.821 220.293 318.744 221.686 318.011C231.186 313.011 235.928 301.681 234.686 289.511C233.58 278.68 228.46 272.457 219.686 266.011C212.222 260.527 197.186 258.511 197.186 258.511C197.186 258.511 195.685 235.011 215.686 215.011C234.686 196.011 261.186 190.511 274.186 166.011C283.686 148.107 285.686 131.011 275.686 110.011Z" fill="#10B981"/>
</g>
<g filter="url(#filter1_d_129_2734)">
<path d="M107.186 16.0109C204.686 -19.489 270.186 35.0103 270.186 35.0103C270.186 35.0103 239.066 29.3006 216.186 42.5103C193.186 55.7894 183.686 72.5103 183.686 72.5103C183.686 72.5103 137.686 68.6794 80.686 87.5103C24.686 106.011 6.68604 136.51 6.68604 136.51C6.68604 136.51 26.0473 45.5537 107.186 16.0109Z" fill="#4338CA"/>
<path d="M4.18561 154.011C4.18561 154.011 21.4916 177.32 35.6856 189.011C62.4225 211.033 117.186 224.011 117.186 224.011V295.011C117.186 295.011 127.375 300.363 135.186 302.511C142.996 304.659 156.186 307.511 156.186 307.511C156.186 307.511 162.432 321.624 169.186 328.511C176.012 335.471 190.186 342.011 190.186 342.011C190.186 342.011 157.709 343.126 137.686 338.511C120.159 334.471 110.416 330.733 94.686 322.011C93.7098 307.171 92.1861 284.011 92.1861 284.011C92.1861 284.011 94.6861 238.011 80.1861 238.011C65.646 238.011 70.6861 274.011 70.6861 274.011L92.1861 284.011C92.1861 284.011 93.7098 307.171 94.686 322.011C80.8278 314.378 73.431 309.111 61.686 298.511C49.0449 287.102 42.6333 279.678 33.1861 265.511C39.6297 263.363 49.6861 260.011 49.6861 260.011C49.6861 260.011 54.1861 221.511 41.1861 215.511C30.25 210.463 32.1861 245.011 32.1861 245.011L49.6861 260.011C49.6861 260.011 39.6297 263.363 33.1861 265.511C25.938 253.975 22.3902 247.101 17.1861 234.511C12.0201 222.012 9.37994 214.764 6.6861 201.511C2.98602 183.307 4.18561 154.011 4.18561 154.011Z" fill="#4338CA"/>
<path d="M57.1886 108.011C91.1854 92.0106 114.998 87.2418 153.689 84.5114C163.186 83.8412 195.547 82.2436 218.189 87.0114C227.686 89.0113 261.39 98.3846 268.689 121.011C273.199 134.993 266.091 155.511 266.091 155.511C266.091 155.511 257.544 150.745 251.686 148.011C245.828 145.277 235.686 143.011 235.686 143.011C235.686 143.011 240.189 105.011 224.189 106.011C210.502 106.867 212.686 138.511 212.686 138.511C212.686 138.511 207.189 137.499 203.186 137.011C199.183 136.523 192.186 136.011 192.186 136.011C192.186 136.011 194.189 100.511 180.189 101.011C166.189 101.511 167.686 135.511 167.686 135.511C167.686 135.511 160.579 135.718 156.186 136.011C151.793 136.304 145.186 137.011 145.186 137.011C145.186 137.011 148.189 104.804 135.189 104.011C120.249 103.101 122.686 141.011 122.686 141.011C122.686 141.011 115.884 142.34 111.686 143.511C107.488 144.683 101.186 147.011 101.186 147.011C101.186 147.011 104.689 114.511 92.1887 115.011C75.9585 115.661 79.686 156.011 79.686 156.011C79.686 156.011 74.0869 158.215 70.686 160.011C66.8061 162.061 61.186 166.011 61.186 166.011C61.186 166.011 64.6887 133.011 53.1887 133.011C35.2394 133.011 41.6886 177.511 41.6886 177.511C41.6886 177.511 26.2977 170.511 22.1886 153.011C17.0994 131.338 47.6281 112.511 57.1886 108.011Z" fill="#4338CA"/>
<path d="M83.186 198.511C83.186 198.511 112.686 173.974 153.186 171.011C215.686 166.438 239.186 184.011 239.186 184.011L260.686 165.011C260.686 165.011 228.186 141.511 156.186 144.511C97.686 146.948 53.686 185.511 53.686 185.511L83.186 198.511Z" fill="#4338CA"/>
<path d="M121.186 212.011C121.186 212.011 134.292 201.267 161.686 199.511C197.186 197.235 209.686 205.511 209.686 205.511L230.686 189.011C230.686 189.011 211.705 175.848 163.01 177.672C123.444 179.154 93.686 202.605 93.686 202.605L121.186 212.011Z" fill="#4338CA"/>
<path d="M129.489 234.511C129.489 234.511 146.289 225.487 161.686 224.011C181.639 222.099 194.186 225.511 194.186 225.511L205.186 209.511C205.186 209.511 192.555 203.478 165.186 205.011C142.949 206.257 129.489 214.185 129.489 214.185V234.511Z" fill="#4338CA"/>
<path d="M129.489 268.511C129.489 268.511 141.365 254.434 156.186 250.011C174.186 244.639 186.686 247.657 186.686 247.657L192.186 230.776C192.186 230.776 175.497 227.029 158.686 230.776C139.686 235.011 129.489 242.011 129.489 242.011V268.511Z" fill="#4338CA"/>
</g>
<defs>
<filter id="filter0_d_129_2734" x="166.586" y="45.9521" width="170.6" height="306.093" filterUnits="userSpaceOnUse" color-interpolation-filters="sRGB">
<feFlood flood-opacity="0" result="BackgroundImageFix"/>
<feColorMatrix in="SourceAlpha" type="matrix" values="0 0 0 0 0 0 0 0 0 0 0 0 0 0 0 0 0 0 127 0" result="hardAlpha"/>
<feOffset/>
<feGaussianBlur stdDeviation="2"/>
<feComposite in2="hardAlpha" operator="out"/>
<feColorMatrix type="matrix" values="0 0 0 0 1 0 0 0 0 1 0 0 0 0 1 0 0 0 0.5 0"/>
<feBlend mode="normal" in2="BackgroundImageFix" result="effect1_dropShadow_129_2734"/>
<feBlend mode="normal" in="SourceGraphic" in2="effect1_dropShadow_129_2734" result="shape"/>
</filter>
<filter id="filter1_d_129_2734" x="0" y="0" width="274.187" height="346.129" filterUnits="userSpaceOnUse" color-interpolation-filters="sRGB">
<feFlood flood-opacity="0" result="BackgroundImageFix"/>
<feColorMatrix in="SourceAlpha" type="matrix" values="0 0 0 0 0 0 0 0 0 0 0 0 0 0 0 0 0 0 127 0" result="hardAlpha"/>
<feOffset/>
<feGaussianBlur stdDeviation="2"/>
<feComposite in2="hardAlpha" operator="out"/>
<feColorMatrix type="matrix" values="0 0 0 0 0.235577 0 0 0 0 0.235577 0 0 0 0 0.235577 0 0 0 1 0"/>
<feBlend mode="normal" in2="BackgroundImageFix" result="effect1_dropShadow_129_2734"/>
<feBlend mode="normal" in="SourceGraphic" in2="effect1_dropShadow_129_2734" result="shape"/>
</filter>
</defs>
</svg>
